<?xml version="1.0" encoding="UTF-8" standalone="no"?>
<!-- Created with Inkscape (http://www.inkscape.org/) -->

<svg
   width="500mm"
   height="271.38419mm"
   viewBox="0 0 500.00001 271.38418"
   version="1.1"
   id="svg19608"
   inkscape:version="1.2.2 (732a01da63, 2022-12-09)"
   sodipodi:docname="Prosto 102.5 FM.svg"
   xmlns:inkscape="http://www.inkscape.org/namespaces/inkscape"
   xmlns:sodipodi="http://sodipodi.sourceforge.net/DTD/sodipodi-0.dtd"
   xmlns="http://www.w3.org/2000/svg"
   xmlns:svg="http://www.w3.org/2000/svg">
  <sodipodi:namedview
     id="namedview19610"
     pagecolor="#ffffff"
     bordercolor="#000000"
     borderopacity="0.25"
     inkscape:showpageshadow="2"
     inkscape:pageopacity="0.0"
     inkscape:pagecheckerboard="0"
     inkscape:deskcolor="#d1d1d1"
     inkscape:document-units="mm"
     showgrid="false"
     inkscape:zoom="0.2973261"
     inkscape:cx="941.72694"
     inkscape:cy="516.26816"
     inkscape:current-layer="layer1" />
  <defs
     id="defs19605" />
  <g
     inkscape:label="Слой 1"
     inkscape:groupmode="layer"
     id="layer1"
     transform="translate(340.2459,-177.41088)">
    <path
       id="path3568"
       clip-path="none"
       style="clip-rule:evenodd;fill:#e52528;fill-rule:evenodd;stroke-width:14.0726"
       d="m -87.149177,200.48597 c -1.128396,0.009 -2.263862,0.0426 -3.406358,0.10176 -36.715495,1.89966 -66.408435,28.73726 -66.408435,59.83721 0,30.93131 29.69355,54.7666 66.408435,52.85634 36.560787,-1.90225 66.254134,-28.75038 66.254134,-59.82267 0,-30.00542 -27.867405,-53.26035 -62.847776,-52.97259 z"
       sodipodi:nodetypes="ssssss" />
    <path
       id="path3570"
       clip-path="none"
       style="clip-rule:evenodd;fill:#a7a9ab;fill-rule:evenodd;stroke-width:14.0726"
       d="m -110.39864,214.25255 c -4.99432,22.36122 -6.72575,44.75036 -6.88052,66.97167 18.91357,-14.2974 39.065543,-26.99167 60.792752,-36.99736 -17.027012,-12.21457 -35.012479,-22.05144 -53.912232,-29.97431 z" />
    <path
       id="path3572"
       clip-path="none"
       style="clip-rule:evenodd;fill:#ffffff;fill-rule:evenodd;stroke-width:14.0726"
       d="m -109.91982,219.48768 c -4.388,22.20644 -5.78313,38.85397 -5.78313,61.25773 18.898682,-14.29847 32.957524,-24.61284 54.685804,-34.63236 -16.732882,-13.7916 -30.776808,-21.53104 -48.902674,-26.62537 z" />
    <path
       id="path3574"
       clip-path="none"
       style="clip-rule:evenodd;fill:#a7a9ab;fill-rule:evenodd;stroke-width:14.0726"
       d="m -3.9947079,204.55657 c 12.974631,14.12827 20.9259659,34.60444 20.9259659,57.42999 0,22.8681 -7.9513349,43.32995 -20.9259659,57.62789 19.3917379,-8.5707 33.1267239,-31.08718 33.1267239,-57.62789 0,-26.48486 -13.734986,-49.01514 -33.1267239,-57.42999 z" />
    <path
       id="path3576"
       clip-path="none"
       style="clip-rule:evenodd;fill:#a7a9ab;fill-rule:evenodd;stroke-width:14.0726"
       d="m -176.48326,204.55657 c -19.3779,8.41485 -33.12741,30.94513 -33.12741,57.42999 0,26.54071 13.74951,49.05719 33.12741,57.62789 -12.98846,-14.29794 -20.95433,-34.75979 -20.95433,-57.62789 0,-22.82555 7.96587,-43.30172 20.95433,-57.42999 z" />
    <path
       id="path3578"
       clip-path="none"
       style="clip-rule:evenodd;fill:#a7a9ab;fill-rule:evenodd;stroke-width:14.0726"
       d="m 57.418014,196.46449 c 14.677173,16.21162 23.895027,39.53026 23.895027,65.52207 0,26.06255 -9.217854,49.38101 -23.895027,65.56498 22.024001,-9.6823 37.658158,-35.39314 37.658158,-65.56498 0,-30.14364 -15.634157,-55.84029 -37.658158,-65.52207 z" />
    <path
       id="path3580"
       clip-path="none"
       style="clip-rule:evenodd;fill:#a7a9ab;fill-rule:evenodd;stroke-width:14.0726"
       d="m -237.89597,196.46449 c -22.02347,9.68178 -37.81247,35.37843 -37.81247,65.52207 0,30.17184 15.789,55.88268 37.81247,65.56498 -14.69207,-16.18397 -23.90956,-39.50243 -23.90956,-65.56498 0,-25.99181 9.21749,-49.31045 23.90956,-65.52207 z" />
    <path
       id="path3582"
       clip-path="none"
       style="clip-rule:evenodd;fill:#a7a9ab;fill-rule:evenodd;stroke-width:14.0726"
       d="m 111.00642,177.41088 c 18.89975,20.95385 30.9603,51.11152 30.9603,84.57568 0,33.50672 -12.06055,63.6647 -30.9603,84.59092 28.44058,-12.5103 48.74768,-45.69469 48.74768,-84.59092 0,-38.85475 -20.3071,-71.86805 -48.74768,-84.57568 z" />
    <path
       id="path3584"
       clip-path="none"
       style="clip-rule:evenodd;fill:#a7a9ab;fill-rule:evenodd;stroke-width:14.0726"
       d="m -291.48438,177.41088 c -28.44058,12.70763 -48.76152,45.72093 -48.76152,84.57568 0,38.89623 20.32094,72.08062 48.76152,84.59092 -18.91359,-20.92622 -30.94507,-51.0842 -30.94507,-84.59092 0,-33.46416 12.03148,-63.62183 30.94507,-84.57568 z" />
    <path
       id="path3586"
       clip-path="none"
       style="clip-rule:evenodd;fill:#e52528;fill-rule:evenodd;stroke-width:14.0726"
       d="m -67.89906,343.61395 c -3.037033,0 -5.714032,0.21255 -7.951638,0.69123 -2.207291,0.53187 -4.068474,1.18063 -5.572088,2.15397 -1.521181,0.93078 -2.797975,2.13854 -3.744714,3.79799 -0.930779,1.52119 -1.616716,3.43005 -2.084777,5.55757 l -3.616709,17.61924 -2.335256,11.04662 c -0.803136,3.77101 -0.106581,6.61427 2.223172,8.38755 h 0.106581 c 2.308356,1.78711 6.304688,2.60096 12.130871,2.60096 h 28.666564 c 3.164676,0 5.951885,-0.21258 8.287904,-0.59021 2.334935,-0.47869 4.207513,-1.05336 5.812191,-2.01075 1.531813,-0.80313 2.829159,-1.98378 3.759938,-3.2922 0.930793,-1.44669 1.63344,-3.07953 1.968528,-5.09535 l 2.111074,-10.20247 H -56.1418 l -1.138224,5.91045 c -0.590375,2.48918 -2.010612,3.70181 -4.334928,3.70181 -1.265868,0 -2.095609,-0.26623 -2.446658,-0.8566 -0.478679,-0.59039 -0.590214,-1.52132 -0.318967,-2.84037 l 4.531434,-21.33419 c 0.265944,-1.26587 0.707373,-2.23891 1.409444,-2.8293 0.69144,-0.57974 1.633346,-0.81371 2.798162,-0.81371 1.281828,0 2.095582,0.21269 2.547682,0.81371 0.478693,0.59039 0.478452,1.56343 0.265691,2.8293 l -0.691226,3.71841 h 27.990536 l 1.265533,-6.75598 c 1.06908,-4.39332 0.478906,-7.58491 -1.744346,-9.47041 -1.026528,-0.95738 -2.675593,-1.53197 -4.898845,-2.04257 l -0.0387,-0.004 c -2.19666,-0.47868 -4.882255,-0.69123 -8.147447,-0.69123 z m -64.61566,0.003 c -5.81235,0 -10.35744,0.94106 -13.41093,2.58989 -3.01044,1.7871 -4.88314,4.51562 -5.71394,8.30313 l -3.95714,18.92768 -1.98375,9.72366 c -0.47869,2.24983 -0.57961,4.16493 -0.31898,5.68556 0.21275,1.54777 0.93039,2.83959 2.07924,3.9246 0.10632,0 0.26639,0.10659 0.26639,0.10659 1.17013,0.95738 2.70148,1.548 4.55773,2.01073 1.95731,0.37231 4.54803,0.59021 7.57176,0.59021 h 28.80633 c 3.26572,0 6.07958,-0.21258 8.4007,-0.59021 2.44663,-0.47869 4.31936,-1.17033 5.82671,-2.11176 2.898736,-1.77116 4.898609,-5.01045 5.840568,-9.61226 l 3.728097,-17.74517 2.165744,-10.90962 c 0.478692,-1.88818 0.478933,-3.56385 0.106581,-4.98396 -0.319128,-1.29245 -1.138144,-2.47833 -2.308276,-3.32402 v -0.10658 c -1.292473,-0.81908 -2.925229,-1.40958 -5.026153,-1.88827 -2.095596,-0.37231 -4.781831,-0.59021 -7.922571,-0.59021 z m 186.118138,0.005 c -5.812362,0 -10.259166,0.94176 -13.298848,2.59058 -3.026384,1.78711 -4.882442,4.51509 -5.699407,8.30313 l -2.898485,13.73476 -3.153806,14.91658 c -0.478689,2.24983 -0.479142,4.16424 -0.266391,5.68487 0.26594,1.54777 0.941672,2.8456 2.095848,3.92531 0.372314,0.26594 0.829745,0.56393 1.308435,0.81923 0.91483,0.57974 2.095221,0.95744 3.472785,1.29253 1.983905,0.37231 4.548047,0.59021 7.585602,0.59021 h 28.679012 c 3.377425,0 6.178321,-0.21259 8.514861,-0.59021 2.446637,-0.4787 4.318672,-1.17034 5.727085,-2.11176 3.026384,-1.77115 5.010821,-5.01046 5.826721,-9.61226 l 6.065437,-28.65134 c 0.478691,-1.88816 0.478867,-3.56315 0.106555,-4.98326 l 0.0249,6.9e-4 c -0.372315,-1.29246 -1.18108,-2.47811 -2.335255,-3.31848 -1.281825,-0.93078 -2.914313,-1.52168 -5.137563,-2.00037 -2.084962,-0.37231 -4.659633,-0.59021 -7.810478,-0.59021 z m -331.761268,0.36465 -10.7235,51.12584 h 27.51173 l 7.48666,-38.12314 h 6.98017 l -7.47213,38.12314 h 27.52557 l 6.65635,-31.62179 4.08098,-19.50405 z m 257.725713,0 -2.446658,11.58148 h 14.1153233 l -8.1619773,39.54436 h 27.271632 l 8.275454,-39.54436 h 14.114629 l 2.572587,-11.58148 z m -193.232533,0.003 -6.53041,31.60726 -4.19101,19.51789 h 27.63836 l 2.78707,-13.5943 h 17.49194 c 6.5304,0 11.31519,-0.95737 14.24263,-2.71789 2.89875,-1.91477 4.88234,-5.07947 5.92429,-9.72436 l 0.70231,-3.65753 2.23976,-10.42666 c 0.31913,-1.88816 0.31913,-3.56383 0,-4.98395 -0.26593,-1.40948 -1.06964,-2.46277 -2.23976,-3.43611 -1.28183,-0.94142 -2.91461,-1.54731 -5.02617,-2.01004 -2.19666,-0.37232 -4.75453,-0.57431 -7.90804,-0.57431 z m 93.37701,11.23276 c 2.33494,0 3.26538,1.18039 2.67499,3.64299 l 0.0374,-0.0107 -4.43041,21.3342 c -0.26593,1.19672 -0.67555,2.15377 -1.29253,2.76011 0,0 -0.10658,10e-5 -0.10658,0.10658 -0.67548,0.47869 -1.61665,0.8566 -2.89847,0.8566 -1.17014,0 -1.98393,-0.37259 -2.44666,-0.8566 -0.47869,-0.59039 -0.47915,-1.52132 -0.2664,-2.84037 l 4.4311,-21.33419 c 0.21275,-1.15418 0.69111,-2.06909 1.26554,-2.68607 0.10644,0 0.10658,-0.15915 0.10658,-0.15915 0.70207,-0.57442 1.63301,-0.8137 2.92547,-0.8137 z m 186.302182,0.001 c 2.334945,0 3.26607,1.18039 2.675684,3.64299 l -0.0422,-0.005 -4.431103,21.33419 c -0.212752,1.19673 -0.675151,2.15376 -1.265536,2.76011 -0.10638,0 -0.106554,2.4e-4 -0.106554,0.10658 -0.691441,0.4787 -1.632615,0.8566 -2.898485,0.8566 -1.292463,0 -2.11153,-0.37259 -2.46257,-0.8566 -0.478691,-0.59037 -0.590747,-1.52083 -0.213113,-2.84521 l 4.430412,-21.3342 c 0.21275,-1.15417 0.718092,-2.06908 1.29252,-2.68606 l 0.106554,-0.15915 c 0.686124,-0.57443 1.616617,-0.8137 2.914399,-0.8137 z m -254.488872,0.22349 h 3.71772 c 1.29247,0 2.22331,0.37286 2.68606,0.84623 0.47869,0.59039 0.47846,1.52097 0.2657,2.96768 l -0.0262,0.008 -1.39354,6.95249 c -0.37231,1.32438 -0.93086,2.28185 -1.63294,2.85627 -0.47869,0.37232 -1.06952,0.59062 -1.76096,0.70232 -0.31913,0 -0.8134,0.10591 -1.28146,0.10591 h -3.60079 z" />
    <path
       id="path3588"
       clip-path="none"
       style="fill:#000000;stroke-width:14.0726"
       d="m 4.3277963,401.54766 -0.3722567,1.60596 -8.4574301,39.7547 -0.5320926,2.44665 H 15.723844 l 0.318978,-1.57413 4.505141,-21.12317 4.462241,21.12317 0.372256,1.57413 h 17.773543 l 0.579836,-0.8988 13.438616,-21.05328 -4.148796,19.50474 -0.5314,2.44666 h 20.756442 l 0.372257,-1.57483 8.458122,-39.75539 0.531401,-2.47364 H 52.303286 l -0.589523,0.95625 -12.820033,20.05344 -4.148798,-19.4065 -0.372257,-1.60596 z m 47.9754897,0.003 6.91e-4,-10e-4 -0.01868,10e-4 z m -105.428312,0.003 -0.31898,1.60666 -8.472654,39.7547 -0.53209,2.44665 h 24.584887 l 0.319663,-1.57482 3.121977,-14.66333 h 25.4857682 l 0.3189795,-1.60597 1.7180563,-8.04919 0.5320913,-2.46257 H -31.853091 l 0.594365,-2.84728 h 29.8483678 l 0.3722568,-1.57484 1.81354172,-8.55636 0.53209258,-2.47365 z m -182.655724,0.10243 c -4.98369,0 -8.76796,0.81897 -11.3566,2.32418 -2.59025,1.42011 -4.1809,3.85598 -4.86702,7.06319 l -4.39305,20.95434 -0.69194,3.43611 c -0.69143,3.33488 -0.37181,5.74137 0.69194,7.37318 0.21274,0.31913 0.47822,0.53246 0.70161,0.83031 1.88817,1.50522 5.47456,2.29236 10.65291,2.29236 h 24.48525 c 5.47355,0 9.45618,-0.68607 11.94751,-2.29236 2.57429,-1.56372 4.27631,-4.27626 5.07944,-8.20419 l 3.6596,-17.37983 1.40185,-6.99401 c 0.4255,-1.60095 0.42574,-3.01053 0.10658,-4.24981 -0.15956,-0.99994 -0.78759,-1.91439 -1.50563,-2.50478 -0.15955,-0.21275 -0.26537,-0.31916 -0.47812,-0.42554 -1.09567,-0.71803 -2.48965,-1.3088 -4.29272,-1.60666 -1.78711,-0.4255 -4.06861,-0.61649 -6.75459,-0.61649 z m 57.91987,0.009 c -4.79753,0 -8.56939,0.71824 -11.34207,2.11176 -2.79768,1.43606 -4.38801,3.43624 -4.99434,6.17754 l -1.49526,6.98085 h 23.88188 l 0.53694,-2.61687 c 0.15956,-0.80314 0.5801,-1.40973 1.18112,-1.92564 0.69144,-0.53719 1.48922,-0.80333 2.37746,-0.80333 0.99994,0 1.69119,0.26614 1.99967,0.80333 0.31913,0.53187 0.37198,1.22321 0.21243,2.32419 -0.21276,0.59039 -0.53184,1.12768 -0.98392,1.71805 -0.53189,0.59039 -1.0955,1.11201 -1.81355,1.52156 l -31.354,18.16724 -0.21311,1.04205 -1.78725,8.48511 h 53.46247 l 2.11176,-10.01912 h -20.32052 l 18.61838,-10.80791 c 1.59031,-0.91483 2.78702,-1.91457 3.68591,-3.13788 0.78716,-1.19673 1.48935,-2.72874 1.80315,-4.65944 l 0.69124,-3.30812 -0.0236,-6.8e-4 0.78742,-3.76064 c 0.53187,-1.91474 0.2125,-3.43009 -0.78742,-4.74384 -0.37232,-0.53188 -0.89866,-1.02691 -1.48903,-1.43645 -2.19665,-1.39352 -5.67148,-2.11176 -10.54082,-2.11176 z m 65.8203,0.39786 -5.37628,25.66982 h 23.993979 c 0.478692,-0.69144 0.898899,-1.30811 1.478642,-1.60597 0.531876,-0.4255 1.111767,-0.53209 1.787246,-0.53209 1.12758,0 1.813918,0.15937 2.196874,0.69124 0.319129,0.53187 0.425174,1.32469 0.212427,2.33525 l -0.898818,4.24982 c -0.212761,1.09567 -0.632512,1.92501 -1.212256,2.33456 -0.590388,0.47869 -1.393484,0.78742 -2.37746,0.78742 -1.111619,0 -1.803327,-0.31937 -2.09585,-0.78742 -0.372325,-0.53188 -0.372673,-1.35058 -0.213109,-2.33456 l 0.372941,-1.72912 h -24.092916 l -1.39355,6.58506 c -0.47869,2.61684 0.31947,4.65986 2.50548,6.06614 2.069,1.42012 5.6571,2.11106 10.44188,2.11106 h 24.289417 c 5.079445,0 8.950115,-0.68564 11.553123,-2.19617 2.685984,-1.54775 4.377346,-3.85667 5.079431,-7.22026 l 2.377473,-11.60848 c 1.393525,-6.67081 -3.079785,-10.02049 -13.53757,-10.02049 l 0.05329,0.0443 -13.931961,-0.10591 0.590214,-2.84037 h 29.566761 l 2.07993,-9.89387 z m -172.02081,0.0201 -3.27626,15.66316 h 4.95212 l -5.85441,27.90613 h 23.78295 l 8.06302,-38.50231 1.11262,-5.06698 z m 58.71282,9.50224 c 1.99986,0 2.80296,1.08553 2.29236,3.22369 l 0.0159,0.0107 -3.78691,18.09736 c -0.21275,0.98398 -0.59074,1.81361 -1.09602,2.22316 0,0.10645 -0.10592,0.10658 -0.10592,0.10658 -0.59038,0.47869 -1.39388,0.78672 -2.48955,0.78672 -0.99993,0 -1.67523,-0.31867 -2.08478,-0.78672 -0.31913,-0.42551 -0.42586,-1.23958 -0.21311,-2.33526 l 3.78692,-18.09736 c 0.31913,-0.99994 0.58034,-1.81336 1.08563,-2.31864 0.10631,0 0.10591,-0.10658 0.10591,-0.10658 0.59039,-0.53188 1.39389,-0.80332 2.48954,-0.80332 z m 93.79425,19.22036 c -2.4892,0 -4.78721,0.89887 -6.86738,2.71789 -1.39352,1.1276 -2.48934,2.52111 -3.18079,4.02633 -0.31912,0.74463 -0.47848,1.43594 -0.69124,2.23908 -0.53188,2.20729 -0.21295,4.05254 0.69124,5.67103 0.15956,0.31913 0.26606,0.47892 0.47881,0.70232 1.39352,1.8137 3.27637,2.63278 5.67035,2.63278 2.48919,0 4.78668,-0.81377 6.88122,-2.63278 2.18069,-1.70201 3.48947,-3.84033 3.98412,-6.37473 0.53188,-2.436 0.10645,-4.53138 -1.29252,-6.26265 -1.29248,-1.81372 -3.30808,-2.71789 -5.68557,-2.71789 z" />
  </g>
</svg>
